<svg xmlns="http://www.w3.org/2000/svg" viewBox="0 0 800 600" role="img" aria-label="Illustration of a double occupancy room">
<rect width="800" height="600" fill="#EAF0E7"/>
<rect y="430" width="800" height="170" fill="#E3D9C6"/><rect y="425" width="800" height="8" fill="#D2C6AE"/><rect x="325" y="100" width="150" height="170" rx="8" fill="#F6FAF4" stroke="#5F7D60" stroke-width="6"/><line x1="400" y1="100" x2="400" y2="270" stroke="#5F7D60" stroke-width="4"/><circle cx="365" cy="150" r="22" fill="#F4D9C3"/><rect x="120" y="310" width="190" height="90" rx="10" fill="#fff" stroke="#244C3A" stroke-width="4"/><rect x="120" y="345" width="190" height="55" rx="10" fill="#5F7D60"/><rect x="132" y="320" width="60" height="28" rx="8" fill="#FAF8F2" stroke="#244C3A" stroke-width="3"/><rect x="120" y="395" width="10" height="35" fill="#244C3A"/><rect x="300" y="395" width="10" height="35" fill="#244C3A"/><rect x="490" y="310" width="190" height="90" rx="10" fill="#fff" stroke="#244C3A" stroke-width="4"/><rect x="490" y="345" width="190" height="55" rx="10" fill="#E8B89A"/><rect x="502" y="320" width="60" height="28" rx="8" fill="#FAF8F2" stroke="#244C3A" stroke-width="3"/><rect x="490" y="395" width="10" height="35" fill="#244C3A"/><rect x="670" y="395" width="10" height="35" fill="#244C3A"/><rect x="380" y="385" width="40" height="45" rx="6" fill="#E8B89A"/><path d="M400 385 C360 345 390 305 400 315 C410 305 440 345 400 385Z" fill="#5F7D60"/>
<text x="400" y="575" text-anchor="middle" font-family="system-ui,sans-serif" font-size="18" fill="#66736B">Placeholder illustration – replace with a real photo</text>
</svg>