<svg xmlns="http://www.w3.org/2000/svg" viewBox="0 0 800 600" role="img" aria-label="Illustration of a bright shared room">
<rect width="800" height="600" fill="#EAF0E7"/>
<rect y="430" width="800" height="170" fill="#E3D9C6"/><rect y="425" width="800" height="8" fill="#D2C6AE"/><rect x="80" y="110" width="150" height="170" rx="8" fill="#F6FAF4" stroke="#5F7D60" stroke-width="6"/><line x1="155" y1="110" x2="155" y2="280" stroke="#5F7D60" stroke-width="4"/><circle cx="120" cy="160" r="22" fill="#F4D9C3"/><rect x="570" y="110" width="150" height="170" rx="8" fill="#F6FAF4" stroke="#5F7D60" stroke-width="6"/><line x1="645" y1="110" x2="645" y2="280" stroke="#5F7D60" stroke-width="4"/><circle cx="610" cy="160" r="22" fill="#F4D9C3"/><rect x="260" y="300" width="190" height="90" rx="10" fill="#fff" stroke="#244C3A" stroke-width="4"/><rect x="260" y="335" width="190" height="55" rx="10" fill="#5F7D60"/><rect x="272" y="310" width="60" height="28" rx="8" fill="#FAF8F2" stroke="#244C3A" stroke-width="3"/><rect x="260" y="385" width="10" height="35" fill="#244C3A"/><rect x="440" y="385" width="10" height="35" fill="#244C3A"/><rect x="500" y="300" width="190" height="90" rx="10" fill="#fff" stroke="#244C3A" stroke-width="4"/><rect x="500" y="335" width="190" height="55" rx="10" fill="#E8B89A"/><rect x="512" y="310" width="60" height="28" rx="8" fill="#FAF8F2" stroke="#244C3A" stroke-width="3"/><rect x="500" y="385" width="10" height="35" fill="#244C3A"/><rect x="680" y="385" width="10" height="35" fill="#244C3A"/><rect x="40" y="330" width="200" height="14" rx="4" fill="#244C3A"/><rect x="50" y="344" width="12" height="90" fill="#244C3A"/><rect x="218" y="344" width="12" height="90" fill="#244C3A"/><rect x="100" y="270" width="90" height="60" rx="6" fill="#EAF0E7" stroke="#244C3A" stroke-width="4"/><rect x="700" y="385" width="40" height="45" rx="6" fill="#E8B89A"/><path d="M720 385 C680 345 710 305 720 315 C730 305 760 345 720 385Z" fill="#5F7D60"/>
<text x="400" y="575" text-anchor="middle" font-family="system-ui,sans-serif" font-size="18" fill="#66736B">Placeholder illustration – replace with a real photo</text>
</svg>